<svg width="800" height="450" xmlns="http://www.w3.org/2000/svg" xmlns:xlink="http://www.w3.org/1999/xlink" version="1.1" baseProfile="full" viewBox="0 0 800 450">
<rect width="800" height="450" x="0" y="0" fill="none"></rect>
<path d="M62.2 362.5L768 362.5" fill="transparent" stroke="rgb(226,232,240)" stroke-opacity="0.5" class="zr4-cls-29"></path>
<path d="M62.2 299.5L768 299.5" fill="transparent" stroke="rgb(226,232,240)" stroke-opacity="0.5" class="zr4-cls-29"></path>
<path d="M62.2 235.5L768 235.5" fill="transparent" stroke="rgb(226,232,240)" stroke-opacity="0.5" class="zr4-cls-29"></path>
<path d="M62.2 172.5L768 172.5" fill="transparent" stroke="rgb(226,232,240)" stroke-opacity="0.5" class="zr4-cls-29"></path>
<path d="M62.2 108.5L768 108.5" fill="transparent" stroke="rgb(226,232,240)" stroke-opacity="0.5" class="zr4-cls-29"></path>
<path d="M62.2 45.5L768 45.5" fill="transparent" stroke="rgb(226,232,240)" stroke-opacity="0.5" class="zr4-cls-29"></path>
<path d="M62.2 362.5L768 362.5" fill="transparent" stroke="#cbd5e1" stroke-linecap="round" class="zr4-cls-29"></path>
<path d="M62.5 362.5L62.5 367.5" fill="transparent" stroke="#cbd5e1" class="zr4-cls-29"></path>
<path d="M180.5 362.5L180.5 367.5" fill="transparent" stroke="#cbd5e1" class="zr4-cls-29"></path>
<path d="M297.5 362.5L297.5 367.5" fill="transparent" stroke="#cbd5e1" class="zr4-cls-29"></path>
<path d="M415.5 362.5L415.5 367.5" fill="transparent" stroke="#cbd5e1" class="zr4-cls-29"></path>
<path d="M532.5 362.5L532.5 367.5" fill="transparent" stroke="#cbd5e1" class="zr4-cls-29"></path>
<path d="M650.5 362.5L650.5 367.5" fill="transparent" stroke="#cbd5e1" class="zr4-cls-29"></path>
<path d="M768.5 362.5L768.5 367.5" fill="transparent" stroke="#cbd5e1" class="zr4-cls-29"></path>
<text dominant-baseline="central" text-anchor="end" style="font-size:12px;font-family:ui-sans-serif, system-ui, sans-serif;" transform="translate(54.24 362.5)" fill="#64748b">0</text>
<text dominant-baseline="central" text-anchor="end" style="font-size:12px;font-family:ui-sans-serif, system-ui, sans-serif;" transform="translate(54.24 299)" fill="#64748b">200</text>
<text dominant-baseline="central" text-anchor="end" style="font-size:12px;font-family:ui-sans-serif, system-ui, sans-serif;" transform="translate(54.24 235.5)" fill="#64748b">400</text>
<text dominant-baseline="central" text-anchor="end" style="font-size:12px;font-family:ui-sans-serif, system-ui, sans-serif;" transform="translate(54.24 172)" fill="#64748b">600</text>
<text dominant-baseline="central" text-anchor="end" style="font-size:12px;font-family:ui-sans-serif, system-ui, sans-serif;" transform="translate(54.24 108.5)" fill="#64748b">800</text>
<text dominant-baseline="central" text-anchor="end" style="font-size:12px;font-family:ui-sans-serif, system-ui, sans-serif;" transform="translate(54.24 45)" fill="#64748b">1,000</text>
<text dominant-baseline="central" text-anchor="middle" style="font-size:12px;font-family:ui-sans-serif, system-ui, sans-serif;" y="6" transform="translate(121.0533 370.5)" fill="#64748b">CC2AA2</text>
<text dominant-baseline="central" text-anchor="middle" style="font-size:12px;font-family:ui-sans-serif, system-ui, sans-serif;" y="6" transform="translate(238.68 370.5)" fill="#64748b">B7F3D1</text>
<text dominant-baseline="central" text-anchor="middle" style="font-size:12px;font-family:ui-sans-serif, system-ui, sans-serif;" y="6" transform="translate(356.3067 370.5)" fill="#64748b">E9A1C4</text>
<text dominant-baseline="central" text-anchor="middle" style="font-size:12px;font-family:ui-sans-serif, system-ui, sans-serif;" y="6" transform="translate(473.9333 370.5)" fill="#64748b">D4F8B0</text>
<text dominant-baseline="central" text-anchor="middle" style="font-size:12px;font-family:ui-sans-serif, system-ui, sans-serif;" y="6" transform="translate(591.56 370.5)" fill="#64748b">F2E6C1</text>
<text dominant-baseline="central" text-anchor="middle" style="font-size:12px;font-family:ui-sans-serif, system-ui, sans-serif;" y="6" transform="translate(709.1867 370.5)" fill="#64748b">G8H2I5</text>
<path d="M80.5 362.5l81.2 0l0 -55.9l-81.2 0Z" fill="#10b981" ecmeta_series_index="0" ecmeta_data_index="0" ecmeta_ssr_type="chart" class="zr4-cls-30 zr4-cls-31"></path>
<path d="M198.1 362.5l81.2 0l0 -27l-81.2 0Z" fill="#10b981" ecmeta_series_index="0" ecmeta_data_index="1" ecmeta_ssr_type="chart" class="zr4-cls-32 zr4-cls-31"></path>
<path d="M315.7 362.5l81.2 0l0 -158.1l-81.2 0Z" fill="#10b981" ecmeta_series_index="0" ecmeta_data_index="2" ecmeta_ssr_type="chart" class="zr4-cls-33 zr4-cls-31"></path>
<path d="M433.4 362.5l81.2 0l0 -51.4l-81.2 0Z" fill="#10b981" ecmeta_series_index="0" ecmeta_data_index="3" ecmeta_ssr_type="chart" class="zr4-cls-34 zr4-cls-31"></path>
<path d="M551 362.5l81.2 0l0 -278.1l-81.2 0Z" fill="#10b981" ecmeta_series_index="0" ecmeta_data_index="4" ecmeta_ssr_type="chart" class="zr4-cls-35 zr4-cls-31"></path>
<path d="M668.6 362.5l81.2 0l0 -49.5l-81.2 0Z" fill="#10b981" ecmeta_series_index="0" ecmeta_data_index="5" ecmeta_ssr_type="chart" class="zr4-cls-36 zr4-cls-31"></path>
<path d="M80.5 306.6l81.2 0l0 -21.9l-81.2 0Z" fill="#ef4444" ecmeta_series_index="1" ecmeta_data_index="0" ecmeta_ssr_type="chart" class="zr4-cls-37 zr4-cls-38"></path>
<path d="M198.1 335.5l81.2 0l0 -1.3l-81.2 0Z" fill="#ef4444" ecmeta_series_index="1" ecmeta_data_index="1" ecmeta_ssr_type="chart" class="zr4-cls-39 zr4-cls-38"></path>
<path d="M315.7 204.4l81.2 0l0 -4.4l-81.2 0Z" fill="#ef4444" ecmeta_series_index="1" ecmeta_data_index="2" ecmeta_ssr_type="chart" class="zr4-cls-40 zr4-cls-38"></path>
<path d="M433.4 311.1l81.2 0l0 -5.1l-81.2 0Z" fill="#ef4444" ecmeta_series_index="1" ecmeta_data_index="3" ecmeta_ssr_type="chart" class="zr4-cls-41 zr4-cls-38"></path>
<path d="M551 84.4l81.2 0l0 -5.1l-81.2 0Z" fill="#ef4444" ecmeta_series_index="1" ecmeta_data_index="4" ecmeta_ssr_type="chart" class="zr4-cls-42 zr4-cls-38"></path>
<path d="M668.6 313l81.2 0l0 0l-81.2 0Z" fill="#ef4444" ecmeta_series_index="1" ecmeta_data_index="5" ecmeta_ssr_type="chart" class="zr4-cls-38"></path>
<path d="M-5 -5l229.6 0l0 24l-229.6 0Z" transform="translate(290.18 5)" fill="rgb(0,0,0)" fill-opacity="0" stroke="#ccc" stroke-width="0" class="zr4-cls-29"></path>
<path d="M3.5 0L21.5 0A3.5 3.5 0 0 1 25 3.5L25 10.5A3.5 3.5 0 0 1 21.5 14L3.5 14A3.5 3.5 0 0 1 0 10.5L0 3.5A3.5 3.5 0 0 1 3.5 0" transform="translate(290.18 5)" fill="#10b981" ecmeta_series_index="0" ecmeta_data_index="0" ecmeta_ssr_type="legend" ecmeta_silent="true" class="zr4-cls-29"></path>
<text dominant-baseline="central" text-anchor="start" style="font-size:12px;font-family:ui-sans-serif, system-ui, sans-serif;" xml:space="preserve" x="30" y="7" transform="translate(290.18 5)" fill="#64748b">Valid Records</text>
<path d="M0 0l104.9 0l0 14l-104.9 0Z" transform="translate(290.18 5)" fill="transparent" ecmeta_series_index="0" ecmeta_data_index="0" ecmeta_ssr_type="legend" class="zr4-cls-43"></path>
<path d="M3.5 0L21.5 0A3.5 3.5 0 0 1 25 3.5L25 10.5A3.5 3.5 0 0 1 21.5 14L3.5 14A3.5 3.5 0 0 1 0 10.5L0 3.5A3.5 3.5 0 0 1 3.5 0" transform="translate(405.06 5)" fill="#ef4444" ecmeta_series_index="1" ecmeta_data_index="1" ecmeta_ssr_type="legend" ecmeta_silent="true" class="zr4-cls-29"></path>
<text dominant-baseline="central" text-anchor="start" style="font-size:12px;font-family:ui-sans-serif, system-ui, sans-serif;" xml:space="preserve" x="30" y="7" transform="translate(405.06 5)" fill="#64748b">Error Records</text>
<path d="M0 0l104.8 0l0 14l-104.8 0Z" transform="translate(405.06 5)" fill="transparent" ecmeta_series_index="1" ecmeta_data_index="1" ecmeta_ssr_type="legend" class="zr4-cls-43"></path>
<style ><![CDATA[
.zr4-cls-29:hover {
pointer-events:none;
}
.zr4-cls-30 {
animation:zr4-ani-0 1s cubic-bezier(0.65,0,0.35,1) both;
}
.zr4-cls-31:hover {
cursor:pointer;
fill:rgba(17,203,141,1);
}
.zr4-cls-32 {
animation:zr4-ani-1 1s cubic-bezier(0.65,0,0.35,1) both;
}
.zr4-cls-33 {
animation:zr4-ani-2 1s cubic-bezier(0.65,0,0.35,1) both;
}
.zr4-cls-34 {
animation:zr4-ani-3 1s cubic-bezier(0.65,0,0.35,1) both;
}
.zr4-cls-35 {
animation:zr4-ani-4 1s cubic-bezier(0.65,0,0.35,1) both;
}
.zr4-cls-36 {
animation:zr4-ani-5 1s cubic-bezier(0.65,0,0.35,1) both;
}
.zr4-cls-37 {
animation:zr4-ani-6 1s cubic-bezier(0.65,0,0.35,1) both;
}
.zr4-cls-38:hover {
cursor:pointer;
fill:rgba(255,74,74,1);
}
.zr4-cls-39 {
animation:zr4-ani-7 1s cubic-bezier(0.65,0,0.35,1) both;
}
.zr4-cls-40 {
animation:zr4-ani-8 1s cubic-bezier(0.65,0,0.35,1) both;
}
.zr4-cls-41 {
animation:zr4-ani-9 1s cubic-bezier(0.65,0,0.35,1) both;
}
.zr4-cls-42 {
animation:zr4-ani-10 1s cubic-bezier(0.65,0,0.35,1) both;
}
.zr4-cls-43:hover {
cursor:pointer;
fill:rgba(0,0,0,0);
}
@keyframes zr4-ani-0 {
0% {
d:path("M80.5 362.5l81.2 0l0 0l-81.2 0Z");
}
100% {
d:path("M80.5 362.5l81.2 0l0 -55.9l-81.2 0Z");
}
}
@keyframes zr4-ani-1 {
0% {
d:path("M198.1 362.5l81.2 0l0 0l-81.2 0Z");
}
100% {
d:path("M198.1 362.5l81.2 0l0 -27l-81.2 0Z");
}
}
@keyframes zr4-ani-2 {
0% {
d:path("M315.7 362.5l81.2 0l0 0l-81.2 0Z");
}
100% {
d:path("M315.7 362.5l81.2 0l0 -158.1l-81.2 0Z");
}
}
@keyframes zr4-ani-3 {
0% {
d:path("M433.4 362.5l81.2 0l0 0l-81.2 0Z");
}
100% {
d:path("M433.4 362.5l81.2 0l0 -51.4l-81.2 0Z");
}
}
@keyframes zr4-ani-4 {
0% {
d:path("M551 362.5l81.2 0l0 0l-81.2 0Z");
}
100% {
d:path("M551 362.5l81.2 0l0 -278.1l-81.2 0Z");
}
}
@keyframes zr4-ani-5 {
0% {
d:path("M668.6 362.5l81.2 0l0 0l-81.2 0Z");
}
100% {
d:path("M668.6 362.5l81.2 0l0 -49.5l-81.2 0Z");
}
}
@keyframes zr4-ani-6 {
0% {
d:path("M80.5 306.6l81.2 0l0 0l-81.2 0Z");
}
100% {
d:path("M80.5 306.6l81.2 0l0 -21.9l-81.2 0Z");
}
}
@keyframes zr4-ani-7 {
0% {
d:path("M198.1 335.5l81.2 0l0 0l-81.2 0Z");
}
100% {
d:path("M198.1 335.5l81.2 0l0 -1.3l-81.2 0Z");
}
}
@keyframes zr4-ani-8 {
0% {
d:path("M315.7 204.4l81.2 0l0 0l-81.2 0Z");
}
100% {
d:path("M315.7 204.4l81.2 0l0 -4.4l-81.2 0Z");
}
}
@keyframes zr4-ani-9 {
0% {
d:path("M433.4 311.1l81.2 0l0 0l-81.2 0Z");
}
100% {
d:path("M433.4 311.1l81.2 0l0 -5.1l-81.2 0Z");
}
}
@keyframes zr4-ani-10 {
0% {
d:path("M551 84.4l81.2 0l0 0l-81.2 0Z");
}
100% {
d:path("M551 84.4l81.2 0l0 -5.1l-81.2 0Z");
}
}
]]>

</style>
</svg>