<svg width="800" height="450" xmlns="http://www.w3.org/2000/svg" xmlns:xlink="http://www.w3.org/1999/xlink" version="1.1" baseProfile="full" viewBox="0 0 800 450">
<rect width="800" height="450" x="0" y="0" fill="none"></rect>
<path d="M480 67.5A157.5 157.5 0 1 1 457.1 380.8L480 225Z" fill="#a855f7" ecmeta_series_index="0" ecmeta_data_index="0" ecmeta_ssr_type="chart" transform-origin="480px 225px" class="zr5-cls-44 zr5-cls-45"></path>
<path d="M457.1 380.8A157.5 157.5 0 0 1 361.2 328.4L480 225Z" fill="#10b981" ecmeta_series_index="0" ecmeta_data_index="1" ecmeta_ssr_type="chart" transform-origin="480px 225px" class="zr5-cls-46 zr5-cls-47"></path>
<path d="M361.2 328.4A157.5 157.5 0 0 1 389.4 96.2L480 225Z" fill="#3b82f6" ecmeta_series_index="0" ecmeta_data_index="2" ecmeta_ssr_type="chart" transform-origin="480px 225px" class="zr5-cls-48 zr5-cls-49"></path>
<path d="M389.4 96.2A157.5 157.5 0 0 1 464.5 68.3L480 225Z" fill="#f97316" ecmeta_series_index="0" ecmeta_data_index="3" ecmeta_ssr_type="chart" transform-origin="480px 225px" class="zr5-cls-50 zr5-cls-51"></path>
<path d="M464.5 68.3A157.5 157.5 0 0 1 480 67.5L480 225Z" fill="#06b6d4" ecmeta_series_index="0" ecmeta_data_index="4" ecmeta_ssr_type="chart" transform-origin="480px 225px" class="zr5-cls-52 zr5-cls-53"></path>
<path d="M-5 -5l138.3 0l0 120l-138.3 0Z" transform="translate(5 5)" fill="rgb(0,0,0)" fill-opacity="0" stroke="#ccc" stroke-width="0" class="zr5-cls-54"></path>
<path d="M3.5 0L21.5 0A3.5 3.5 0 0 1 25 3.5L25 10.5A3.5 3.5 0 0 1 21.5 14L3.5 14A3.5 3.5 0 0 1 0 10.5L0 3.5A3.5 3.5 0 0 1 3.5 0" transform="translate(5 5)" fill="#a855f7" ecmeta_series_index="0" ecmeta_data_index="0" ecmeta_ssr_type="legend" ecmeta_silent="true" class="zr5-cls-54"></path>
<text dominant-baseline="central" text-anchor="start" style="font-size:12px;font-family:ui-sans-serif, system-ui, sans-serif;" xml:space="preserve" x="30" y="7" transform="translate(5 5)" fill="#64748b">Card Transactions</text>
<path d="M0 0l128.3 0l0 14l-128.3 0Z" transform="translate(5 5)" fill="transparent" ecmeta_series_index="0" ecmeta_data_index="0" ecmeta_ssr_type="legend" class="zr5-cls-55"></path>
<path d="M3.5 0L21.5 0A3.5 3.5 0 0 1 25 3.5L25 10.5A3.5 3.5 0 0 1 21.5 14L3.5 14A3.5 3.5 0 0 1 0 10.5L0 3.5A3.5 3.5 0 0 1 3.5 0" transform="translate(5 29)" fill="#10b981" ecmeta_series_index="0" ecmeta_data_index="1" ecmeta_ssr_type="legend" ecmeta_silent="true" class="zr5-cls-54"></path>
<text dominant-baseline="central" text-anchor="start" style="font-size:12px;font-family:ui-sans-serif, system-ui, sans-serif;" x="30" y="7" transform="translate(5 29)" fill="#64748b">Vendors</text>
<path d="M0 0l74.9 0l0 14l-74.9 0Z" transform="translate(5 29)" fill="transparent" ecmeta_series_index="0" ecmeta_data_index="1" ecmeta_ssr_type="legend" class="zr5-cls-55"></path>
<path d="M3.5 0L21.5 0A3.5 3.5 0 0 1 25 3.5L25 10.5A3.5 3.5 0 0 1 21.5 14L3.5 14A3.5 3.5 0 0 1 0 10.5L0 3.5A3.5 3.5 0 0 1 3.5 0" transform="translate(5 53)" fill="#3b82f6" ecmeta_series_index="0" ecmeta_data_index="2" ecmeta_ssr_type="legend" ecmeta_silent="true" class="zr5-cls-54"></path>
<text dominant-baseline="central" text-anchor="start" style="font-size:12px;font-family:ui-sans-serif, system-ui, sans-serif;" x="30" y="7" transform="translate(5 53)" fill="#64748b">Bills</text>
<path d="M0 0l52 0l0 14l-52 0Z" transform="translate(5 53)" fill="transparent" ecmeta_series_index="0" ecmeta_data_index="2" ecmeta_ssr_type="legend" class="zr5-cls-55"></path>
<path d="M3.5 0L21.5 0A3.5 3.5 0 0 1 25 3.5L25 10.5A3.5 3.5 0 0 1 21.5 14L3.5 14A3.5 3.5 0 0 1 0 10.5L0 3.5A3.5 3.5 0 0 1 3.5 0" transform="translate(5 77)" fill="#f97316" ecmeta_series_index="0" ecmeta_data_index="3" ecmeta_ssr_type="legend" ecmeta_silent="true" class="zr5-cls-54"></path>
<text dominant-baseline="central" text-anchor="start" style="font-size:12px;font-family:ui-sans-serif, system-ui, sans-serif;" x="30" y="7" transform="translate(5 77)" fill="#64748b">Expenses</text>
<path d="M0 0l82.9 0l0 14l-82.9 0Z" transform="translate(5 77)" fill="transparent" ecmeta_series_index="0" ecmeta_data_index="3" ecmeta_ssr_type="legend" class="zr5-cls-55"></path>
<path d="M3.5 0L21.5 0A3.5 3.5 0 0 1 25 3.5L25 10.5A3.5 3.5 0 0 1 21.5 14L3.5 14A3.5 3.5 0 0 1 0 10.5L0 3.5A3.5 3.5 0 0 1 3.5 0" transform="translate(5 101)" fill="#06b6d4" ecmeta_series_index="0" ecmeta_data_index="4" ecmeta_ssr_type="legend" ecmeta_silent="true" class="zr5-cls-54"></path>
<text dominant-baseline="central" text-anchor="start" style="font-size:12px;font-family:ui-sans-serif, system-ui, sans-serif;" x="30" y="7" transform="translate(5 101)" fill="#64748b">Employees</text>
<path d="M0 0l89.5 0l0 14l-89.5 0Z" transform="translate(5 101)" fill="transparent" ecmeta_series_index="0" ecmeta_data_index="4" ecmeta_ssr_type="legend" class="zr5-cls-55"></path>
<style ><![CDATA[
.zr5-cls-44 {
animation:zr5-ani-0 1s cubic-bezier(0.65,0,0.35,1) both;
}
.zr5-cls-45:hover {
cursor:pointer;
fill:rgba(184,93,255,1);
}
.zr5-cls-46 {
animation:zr5-ani-1 1s cubic-bezier(0.65,0,0.35,1) both;
}
.zr5-cls-47:hover {
cursor:pointer;
fill:rgba(17,203,141,1);
}
.zr5-cls-48 {
animation:zr5-ani-2 1s cubic-bezier(0.65,0,0.35,1) both;
}
.zr5-cls-49:hover {
cursor:pointer;
fill:rgba(64,143,255,1);
}
.zr5-cls-50 {
animation:zr5-ani-3 1s cubic-bezier(0.65,0,0.35,1) both;
}
.zr5-cls-51:hover {
cursor:pointer;
fill:rgba(255,126,24,1);
}
.zr5-cls-52 {
animation:zr5-ani-4 1s cubic-bezier(0.65,0,0.35,1) both;
}
.zr5-cls-53:hover {
cursor:pointer;
fill:rgba(6,200,233,1);
}
.zr5-cls-54:hover {
pointer-events:none;
}
.zr5-cls-55:hover {
cursor:pointer;
fill:rgba(0,0,0,0);
}
@keyframes zr5-ani-0 {
0% {
transform:scale(0,0);
}
100% {

}
}
@keyframes zr5-ani-1 {
0% {
transform:scale(0,0);
}
100% {

}
}
@keyframes zr5-ani-2 {
0% {
transform:scale(0,0);
}
100% {

}
}
@keyframes zr5-ani-3 {
0% {
transform:scale(0,0);
}
100% {

}
}
@keyframes zr5-ani-4 {
0% {
transform:scale(0,0);
}
100% {

}
}
]]>

</style>
</svg>