<svg width="800" height="450" xmlns="http://www.w3.org/2000/svg" xmlns:xlink="http://www.w3.org/1999/xlink" version="1.1" baseProfile="full" viewBox="0 0 800 450">
<rect width="800" height="450" x="0" y="0" fill="none"></rect>
<path d="M61.4 385.5L760 385.5" fill="transparent" stroke="rgb(226,232,240)" stroke-opacity="0.5" class="zr1-cls-6"></path>
<path d="M61.4 332.5L760 332.5" fill="transparent" stroke="rgb(226,232,240)" stroke-opacity="0.5" class="zr1-cls-6"></path>
<path d="M61.4 279.5L760 279.5" fill="transparent" stroke="rgb(226,232,240)" stroke-opacity="0.5" class="zr1-cls-6"></path>
<path d="M61.4 226.5L760 226.5" fill="transparent" stroke="rgb(226,232,240)" stroke-opacity="0.5" class="zr1-cls-6"></path>
<path d="M61.4 173.5L760 173.5" fill="transparent" stroke="rgb(226,232,240)" stroke-opacity="0.5" class="zr1-cls-6"></path>
<path d="M61.4 120.5L760 120.5" fill="transparent" stroke="rgb(226,232,240)" stroke-opacity="0.5" class="zr1-cls-6"></path>
<path d="M61.4 67.5L760 67.5" fill="transparent" stroke="rgb(226,232,240)" stroke-opacity="0.5" class="zr1-cls-6"></path>
<text dominant-baseline="central" text-anchor="middle" style="font-size:12px;font-family:ui-sans-serif, system-ui, sans-serif;" xml:space="preserve" y="-6" transform="translate(61.44 52.5)" fill="#64748b">Users (k)</text>
<path d="M61.4 385.5L760 385.5" fill="transparent" stroke="#cbd5e1" stroke-linecap="round" class="zr1-cls-6"></path>
<path d="M119.5 385L119.5 390" fill="transparent" stroke="#cbd5e1" class="zr1-cls-6"></path>
<path d="M236.5 385L236.5 390" fill="transparent" stroke="#cbd5e1" class="zr1-cls-6"></path>
<path d="M352.5 385L352.5 390" fill="transparent" stroke="#cbd5e1" class="zr1-cls-6"></path>
<path d="M469.5 385L469.5 390" fill="transparent" stroke="#cbd5e1" class="zr1-cls-6"></path>
<path d="M585.5 385L585.5 390" fill="transparent" stroke="#cbd5e1" class="zr1-cls-6"></path>
<path d="M702.5 385L702.5 390" fill="transparent" stroke="#cbd5e1" class="zr1-cls-6"></path>
<text dominant-baseline="central" text-anchor="end" style="font-size:12px;font-family:ui-sans-serif, system-ui, sans-serif;font-weight:bold;" transform="translate(53.44 385)" fill="#64748b">0</text>
<text dominant-baseline="central" text-anchor="end" style="font-size:12px;font-family:ui-sans-serif, system-ui, sans-serif;font-weight:bold;" transform="translate(53.44 332.0833)" fill="#64748b">10</text>
<text dominant-baseline="central" text-anchor="end" style="font-size:12px;font-family:ui-sans-serif, system-ui, sans-serif;font-weight:bold;" transform="translate(53.44 279.1667)" fill="#64748b">20</text>
<text dominant-baseline="central" text-anchor="end" style="font-size:12px;font-family:ui-sans-serif, system-ui, sans-serif;font-weight:bold;" transform="translate(53.44 226.25)" fill="#64748b">30</text>
<text dominant-baseline="central" text-anchor="end" style="font-size:12px;font-family:ui-sans-serif, system-ui, sans-serif;font-weight:bold;" transform="translate(53.44 173.3333)" fill="#64748b">40</text>
<text dominant-baseline="central" text-anchor="end" style="font-size:12px;font-family:ui-sans-serif, system-ui, sans-serif;font-weight:bold;" transform="translate(53.44 120.4167)" fill="#64748b">50</text>
<text dominant-baseline="central" text-anchor="end" style="font-size:12px;font-family:ui-sans-serif, system-ui, sans-serif;font-weight:bold;" transform="translate(53.44 67.5)" fill="#64748b">60</text>
<text dominant-baseline="central" text-anchor="middle" style="font-size:12px;font-family:ui-sans-serif, system-ui, sans-serif;font-weight:bold;" y="6" transform="translate(119.6533 393)" fill="#64748b">Jan</text>
<text dominant-baseline="central" text-anchor="middle" style="font-size:12px;font-family:ui-sans-serif, system-ui, sans-serif;font-weight:bold;" y="6" transform="translate(236.08 393)" fill="#64748b">Feb</text>
<text dominant-baseline="central" text-anchor="middle" style="font-size:12px;font-family:ui-sans-serif, system-ui, sans-serif;font-weight:bold;" y="6" transform="translate(352.5067 393)" fill="#64748b">Mar</text>
<text dominant-baseline="central" text-anchor="middle" style="font-size:12px;font-family:ui-sans-serif, system-ui, sans-serif;font-weight:bold;" y="6" transform="translate(468.9333 393)" fill="#64748b">Apr</text>
<text dominant-baseline="central" text-anchor="middle" style="font-size:12px;font-family:ui-sans-serif, system-ui, sans-serif;font-weight:bold;" y="6" transform="translate(585.36 393)" fill="#64748b">May</text>
<text dominant-baseline="central" text-anchor="middle" style="font-size:12px;font-family:ui-sans-serif, system-ui, sans-serif;font-weight:bold;" y="6" transform="translate(701.7867 393)" fill="#64748b">Jun</text>
<path d="M91.6 321.5L112.7 321.5A4 4 0 0 1 116.7 325.5L116.7 385L87.6 385L87.6 325.5A4 4 0 0 1 91.6 321.5" fill="#3b82f6" ecmeta_series_index="0" ecmeta_data_index="0" ecmeta_ssr_type="chart" class="zr1-cls-7"></path>
<path d="M208.1 318.9L229.2 318.9A4 4 0 0 1 233.2 322.9L233.2 385L204.1 385L204.1 322.9A4 4 0 0 1 208.1 318.9" fill="#3b82f6" ecmeta_series_index="0" ecmeta_data_index="1" ecmeta_ssr_type="chart" class="zr1-cls-7"></path>
<path d="M324.5 316.2L345.6 316.2A4 4 0 0 1 349.6 320.2L349.6 385L320.5 385L320.5 320.2A4 4 0 0 1 324.5 316.2" fill="#3b82f6" ecmeta_series_index="0" ecmeta_data_index="2" ecmeta_ssr_type="chart" class="zr1-cls-7"></path>
<path d="M440.9 309.9L462 309.9A4 4 0 0 1 466 313.9L466 385L436.9 385L436.9 313.9A4 4 0 0 1 440.9 309.9" fill="#3b82f6" ecmeta_series_index="0" ecmeta_data_index="3" ecmeta_ssr_type="chart" class="zr1-cls-7"></path>
<path d="M557.3 305.6L578.4 305.6A4 4 0 0 1 582.4 309.6L582.4 385L553.3 385L553.3 309.6A4 4 0 0 1 557.3 305.6" fill="#3b82f6" ecmeta_series_index="0" ecmeta_data_index="4" ecmeta_ssr_type="chart" class="zr1-cls-7"></path>
<path d="M673.8 301.4L694.9 301.4A4 4 0 0 1 698.9 305.4L698.9 385L669.8 385L669.8 305.4A4 4 0 0 1 673.8 301.4" fill="#3b82f6" ecmeta_series_index="0" ecmeta_data_index="5" ecmeta_ssr_type="chart" class="zr1-cls-7"></path>
<path d="M126.6 146.9L147.7 146.9A4 4 0 0 1 151.7 150.9L151.7 385L122.6 385L122.6 150.9A4 4 0 0 1 126.6 146.9" fill="#93c5fd" ecmeta_series_index="1" ecmeta_data_index="0" ecmeta_ssr_type="chart" class="zr1-cls-8"></path>
<path d="M243 141.6L264.1 141.6A4 4 0 0 1 268.1 145.6L268.1 385L239 385L239 145.6A4 4 0 0 1 243 141.6" fill="#93c5fd" ecmeta_series_index="1" ecmeta_data_index="1" ecmeta_ssr_type="chart" class="zr1-cls-8"></path>
<path d="M359.4 131L380.5 131A4 4 0 0 1 384.5 135L384.5 385L355.4 385L355.4 135A4 4 0 0 1 359.4 131" fill="#93c5fd" ecmeta_series_index="1" ecmeta_data_index="2" ecmeta_ssr_type="chart" class="zr1-cls-8"></path>
<path d="M475.8 115.1L497 115.1A4 4 0 0 1 501 119.1L501 385L471.8 385L471.8 119.1A4 4 0 0 1 475.8 115.1" fill="#93c5fd" ecmeta_series_index="1" ecmeta_data_index="3" ecmeta_ssr_type="chart" class="zr1-cls-8"></path>
<path d="M592.3 104.5L613.4 104.5A4 4 0 0 1 617.4 108.5L617.4 385L588.3 385L588.3 108.5A4 4 0 0 1 592.3 104.5" fill="#93c5fd" ecmeta_series_index="1" ecmeta_data_index="4" ecmeta_ssr_type="chart" class="zr1-cls-8"></path>
<path d="M708.7 94L729.8 94A4 4 0 0 1 733.8 98L733.8 385L704.7 385L704.7 98A4 4 0 0 1 708.7 94" fill="#93c5fd" ecmeta_series_index="1" ecmeta_data_index="5" ecmeta_ssr_type="chart" class="zr1-cls-8"></path>
<path d="M-5 -5l223.3 0l0 24l-223.3 0Z" transform="translate(501.72 5)" fill="rgb(0,0,0)" fill-opacity="0" stroke="#ccc" stroke-width="0" class="zr1-cls-6"></path>
<path d="M3.5 0L21.5 0A3.5 3.5 0 0 1 25 3.5L25 10.5A3.5 3.5 0 0 1 21.5 14L3.5 14A3.5 3.5 0 0 1 0 10.5L0 3.5A3.5 3.5 0 0 1 3.5 0" transform="translate(501.72 5)" fill="#3b82f6" ecmeta_series_index="0" ecmeta_data_index="0" ecmeta_ssr_type="legend" ecmeta_silent="true" class="zr1-cls-6"></path>
<text dominant-baseline="central" text-anchor="start" style="font-size:12px;font-family:ui-sans-serif, system-ui, sans-serif;" xml:space="preserve" x="30" y="7" transform="translate(501.72 5)" fill="#64748b">DAU (Daily)</text>
<path d="M0 0l93.2 0l0 14l-93.2 0Z" transform="translate(501.72 5)" fill="transparent" ecmeta_series_index="0" ecmeta_data_index="0" ecmeta_ssr_type="legend" class="zr1-cls-9"></path>
<path d="M3.5 0L21.5 0A3.5 3.5 0 0 1 25 3.5L25 10.5A3.5 3.5 0 0 1 21.5 14L3.5 14A3.5 3.5 0 0 1 0 10.5L0 3.5A3.5 3.5 0 0 1 3.5 0" transform="translate(604.96 5)" fill="#93c5fd" ecmeta_series_index="1" ecmeta_data_index="1" ecmeta_ssr_type="legend" ecmeta_silent="true" class="zr1-cls-6"></path>
<text dominant-baseline="central" text-anchor="start" style="font-size:12px;font-family:ui-sans-serif, system-ui, sans-serif;" xml:space="preserve" x="30" y="7" transform="translate(604.96 5)" fill="#64748b">MAU (Monthly)</text>
<path d="M0 0l110 0l0 14l-110 0Z" transform="translate(604.96 5)" fill="transparent" ecmeta_series_index="1" ecmeta_data_index="1" ecmeta_ssr_type="legend" class="zr1-cls-9"></path>
<style ><![CDATA[
.zr1-cls-6:hover {
pointer-events:none;
}
.zr1-cls-7:hover {
cursor:pointer;
fill:rgba(64,143,255,1);
}
.zr1-cls-8:hover {
cursor:pointer;
fill:rgba(161,216,255,1);
}
.zr1-cls-9:hover {
cursor:pointer;
fill:rgba(0,0,0,0);
}

]]>

</style>
</svg>