<svg width="800" height="450" xmlns="http://www.w3.org/2000/svg" xmlns:xlink="http://www.w3.org/1999/xlink" version="1.1" baseProfile="full" viewBox="0 0 800 450">
<rect width="800" height="450" x="0" y="0" fill="none"></rect>
<path d="M85.4 385.5L768 385.5" fill="transparent" stroke="rgb(226,232,240)" stroke-opacity="0.5" class="zr0-cls-0"></path>
<path d="M85.4 332.5L768 332.5" fill="transparent" stroke="rgb(226,232,240)" stroke-opacity="0.5" class="zr0-cls-0"></path>
<path d="M85.4 279.5L768 279.5" fill="transparent" stroke="rgb(226,232,240)" stroke-opacity="0.5" class="zr0-cls-0"></path>
<path d="M85.4 226.5L768 226.5" fill="transparent" stroke="rgb(226,232,240)" stroke-opacity="0.5" class="zr0-cls-0"></path>
<path d="M85.4 173.5L768 173.5" fill="transparent" stroke="rgb(226,232,240)" stroke-opacity="0.5" class="zr0-cls-0"></path>
<path d="M85.4 120.5L768 120.5" fill="transparent" stroke="rgb(226,232,240)" stroke-opacity="0.5" class="zr0-cls-0"></path>
<path d="M85.4 67.5L768 67.5" fill="transparent" stroke="rgb(226,232,240)" stroke-opacity="0.5" class="zr0-cls-0"></path>
<path d="M85.4 385.5L768 385.5" fill="transparent" stroke="#cbd5e1" stroke-linecap="round" class="zr0-cls-0"></path>
<path d="M85.5 385L85.5 390" fill="transparent" stroke="#cbd5e1" class="zr0-cls-0"></path>
<path d="M222.5 385L222.5 390" fill="transparent" stroke="#cbd5e1" class="zr0-cls-0"></path>
<path d="M358.5 385L358.5 390" fill="transparent" stroke="#cbd5e1" class="zr0-cls-0"></path>
<path d="M495.5 385L495.5 390" fill="transparent" stroke="#cbd5e1" class="zr0-cls-0"></path>
<path d="M631.5 385L631.5 390" fill="transparent" stroke="#cbd5e1" class="zr0-cls-0"></path>
<path d="M768.5 385L768.5 390" fill="transparent" stroke="#cbd5e1" class="zr0-cls-0"></path>
<text dominant-baseline="central" text-anchor="end" style="font-size:12px;font-family:ui-sans-serif, system-ui, sans-serif;font-weight:bold;" transform="translate(77.44 385)" fill="#64748b">60</text>
<text dominant-baseline="central" text-anchor="end" style="font-size:12px;font-family:ui-sans-serif, system-ui, sans-serif;font-weight:bold;" transform="translate(77.44 332.0833)" fill="#64748b">63</text>
<text dominant-baseline="central" text-anchor="end" style="font-size:12px;font-family:ui-sans-serif, system-ui, sans-serif;font-weight:bold;" transform="translate(77.44 279.1667)" fill="#64748b">66</text>
<text dominant-baseline="central" text-anchor="end" style="font-size:12px;font-family:ui-sans-serif, system-ui, sans-serif;font-weight:bold;" transform="translate(77.44 226.25)" fill="#64748b">69</text>
<text dominant-baseline="central" text-anchor="end" style="font-size:12px;font-family:ui-sans-serif, system-ui, sans-serif;font-weight:bold;" transform="translate(77.44 173.3333)" fill="#64748b">72</text>
<text dominant-baseline="central" text-anchor="end" style="font-size:12px;font-family:ui-sans-serif, system-ui, sans-serif;font-weight:bold;" transform="translate(77.44 120.4167)" fill="#64748b">75</text>
<text dominant-baseline="central" text-anchor="end" style="font-size:12px;font-family:ui-sans-serif, system-ui, sans-serif;font-weight:bold;" transform="translate(77.44 67.5)" fill="#64748b">78</text>
<text dominant-baseline="central" text-anchor="middle" style="font-size:12px;font-family:ui-sans-serif, system-ui, sans-serif;font-weight:bold;" y="6" transform="translate(85.44 393)" fill="#64748b">Jan</text>
<text dominant-baseline="central" text-anchor="middle" style="font-size:12px;font-family:ui-sans-serif, system-ui, sans-serif;font-weight:bold;" y="6" transform="translate(221.952 393)" fill="#64748b">Feb</text>
<text dominant-baseline="central" text-anchor="middle" style="font-size:12px;font-family:ui-sans-serif, system-ui, sans-serif;font-weight:bold;" y="6" transform="translate(358.464 393)" fill="#64748b">Mar</text>
<text dominant-baseline="central" text-anchor="middle" style="font-size:12px;font-family:ui-sans-serif, system-ui, sans-serif;font-weight:bold;" y="6" transform="translate(494.976 393)" fill="#64748b">Apr</text>
<text dominant-baseline="central" text-anchor="middle" style="font-size:12px;font-family:ui-sans-serif, system-ui, sans-serif;font-weight:bold;" y="6" transform="translate(631.488 393)" fill="#64748b">May</text>
<text dominant-baseline="central" text-anchor="middle" style="font-size:12px;font-family:ui-sans-serif, system-ui, sans-serif;font-weight:bold;" y="6" transform="translate(768 393)" fill="#64748b">Jun</text>
<g clip-path="url(#zr0-c0)">
<path d="M85.4 243.9C85.4 243.9 152.9 222 222 208.6C289.4 195.5 291 204 358.5 191C427.5 177.6 425.9 169.1 495 155.7C562.4 142.6 564.1 151.1 631.5 138.1C700.6 124.7 768 102.8 768 102.8L768 385L631.5 385L495 385L358.5 385L222 385L85.4 385Z" fill="url(#zr0-g0)" fill-opacity="0.7" class="zr0-cls-3"></path>
<path d="M85.4 243.9C85.4 243.9 152.9 222 222 208.6C289.4 195.5 291 204 358.5 191C427.5 177.6 425.9 169.1 495 155.7C562.4 142.6 564.1 151.1 631.5 138.1C700.6 124.7 768 102.8 768 102.8" fill="transparent" stroke="#2563eb" stroke-width="4" stroke-linejoin="bevel" class="zr0-cls-4"></path>
</g>
<path d="M1 0A1 1 0 1 1 1 -0.1A1 1 0 0 1 1 0" transform="matrix(4,0,0,4,85.44,243.8889)" fill="#fff" stroke="#2563eb" stroke-width="0.5" ecmeta_series_index="0" ecmeta_data_index="0" ecmeta_ssr_type="chart" class="zr0-cls-5"></path>
<path d="M1 0A1 1 0 1 1 1 -0.1A1 1 0 0 1 1 0" transform="matrix(4,0,0,4,221.952,208.6111)" fill="#fff" stroke="#2563eb" stroke-width="0.5" ecmeta_series_index="0" ecmeta_data_index="1" ecmeta_ssr_type="chart" class="zr0-cls-5"></path>
<path d="M1 0A1 1 0 1 1 1 -0.1A1 1 0 0 1 1 0" transform="matrix(4,0,0,4,358.464,190.9722)" fill="#fff" stroke="#2563eb" stroke-width="0.5" ecmeta_series_index="0" ecmeta_data_index="2" ecmeta_ssr_type="chart" class="zr0-cls-5"></path>
<path d="M1 0A1 1 0 1 1 1 -0.1A1 1 0 0 1 1 0" transform="matrix(4,0,0,4,494.976,155.6944)" fill="#fff" stroke="#2563eb" stroke-width="0.5" ecmeta_series_index="0" ecmeta_data_index="3" ecmeta_ssr_type="chart" class="zr0-cls-5"></path>
<path d="M1 0A1 1 0 1 1 1 -0.1A1 1 0 0 1 1 0" transform="matrix(4,0,0,4,631.488,138.0556)" fill="#fff" stroke="#2563eb" stroke-width="0.5" ecmeta_series_index="0" ecmeta_data_index="4" ecmeta_ssr_type="chart" class="zr0-cls-5"></path>
<path d="M1 0A1 1 0 1 1 1 -0.1A1 1 0 0 1 1 0" transform="matrix(4,0,0,4,768,102.7778)" fill="#fff" stroke="#2563eb" stroke-width="0.5" ecmeta_series_index="0" ecmeta_data_index="5" ecmeta_ssr_type="chart" class="zr0-cls-5"></path>
<defs >
<clipPath id="zr0-c0">
<path d="M83 65.5l688 0l0 321.5l-688 0Z" fill="#000" class="zr0-cls-1 zr0-cls-2"></path>
</clipPath>
<linearGradient gradientUnits="objectBoundingBox" x1="0" y1="0" x2="0" y2="1" id="zr0-g0">
<stop offset="0%" stop-color="rgb(37,99,235)" stop-opacity="0.3"></stop>
<stop offset="100%" stop-color="rgb(37,99,235)" stop-opacity="0"></stop>
</linearGradient>
</defs>
<style ><![CDATA[
.zr0-cls-0:hover {
pointer-events:none;
}
.zr0-cls-1 {
animation:zr0-ani-0 1s linear both;
}
.zr0-cls-2:hover {
cursor:pointer;
fill:rgba(0,0,0,1);
}
.zr0-cls-3:hover {
cursor:pointer;
fill:[object Object];
}
.zr0-cls-4:hover {
cursor:pointer;
}
.zr0-cls-5:hover {
cursor:pointer;
fill:rgba(255,255,255,1);
}
@keyframes zr0-ani-0 {
0% {
d:path("M83 65.5l0 0l0 321.5l0 0Z");
}
100% {
d:path("M83 65.5l688 0l0 321.5l-688 0Z");
}
}
]]>

</style>
</svg>