<svg width="800" height="450" xmlns="http://www.w3.org/2000/svg" xmlns:xlink="http://www.w3.org/1999/xlink" version="1.1" baseProfile="full" viewBox="0 0 800 450">
<rect width="800" height="450" x="0" y="0" fill="none"></rect>
<path d="M78.2 385.5L735.2 385.5" fill="transparent" stroke="rgb(226,232,240)" stroke-opacity="0.5" class="zr2-cls-10"></path>
<path d="M78.2 321.5L735.2 321.5" fill="transparent" stroke="rgb(226,232,240)" stroke-opacity="0.5" class="zr2-cls-10"></path>
<path d="M78.2 258.5L735.2 258.5" fill="transparent" stroke="rgb(226,232,240)" stroke-opacity="0.5" class="zr2-cls-10"></path>
<path d="M78.2 194.5L735.2 194.5" fill="transparent" stroke="rgb(226,232,240)" stroke-opacity="0.5" class="zr2-cls-10"></path>
<path d="M78.2 131.5L735.2 131.5" fill="transparent" stroke="rgb(226,232,240)" stroke-opacity="0.5" class="zr2-cls-10"></path>
<path d="M78.2 67.5L735.2 67.5" fill="transparent" stroke="rgb(226,232,240)" stroke-opacity="0.5" class="zr2-cls-10"></path>
<text dominant-baseline="central" text-anchor="middle" style="font-size:12px;font-family:sans-serif;" xml:space="preserve" y="-6" transform="translate(78.24 52.5)" fill="#64748b">Load Time (ms)</text>
<text dominant-baseline="central" text-anchor="middle" style="font-size:12px;font-family:sans-serif;" xml:space="preserve" y="-6" transform="translate(735.2 52.5)" fill="#64748b">Error Rate (%)</text>
<path d="M78.2 385.5L735.2 385.5" fill="transparent" stroke="#cbd5e1" stroke-linecap="round" class="zr2-cls-10"></path>
<path d="M78.5 385L78.5 390" fill="transparent" stroke="#cbd5e1" class="zr2-cls-10"></path>
<path d="M209.5 385L209.5 390" fill="transparent" stroke="#cbd5e1" class="zr2-cls-10"></path>
<path d="M341.5 385L341.5 390" fill="transparent" stroke="#cbd5e1" class="zr2-cls-10"></path>
<path d="M472.5 385L472.5 390" fill="transparent" stroke="#cbd5e1" class="zr2-cls-10"></path>
<path d="M604.5 385L604.5 390" fill="transparent" stroke="#cbd5e1" class="zr2-cls-10"></path>
<path d="M735.5 385L735.5 390" fill="transparent" stroke="#cbd5e1" class="zr2-cls-10"></path>
<text dominant-baseline="central" text-anchor="end" style="font-size:12px;font-family:ui-sans-serif, system-ui, sans-serif;font-weight:bold;" transform="translate(70.24 385)" fill="#64748b">1,000</text>
<text dominant-baseline="central" text-anchor="end" style="font-size:12px;font-family:ui-sans-serif, system-ui, sans-serif;font-weight:bold;" transform="translate(70.24 321.5)" fill="#64748b">1,100</text>
<text dominant-baseline="central" text-anchor="end" style="font-size:12px;font-family:ui-sans-serif, system-ui, sans-serif;font-weight:bold;" transform="translate(70.24 258)" fill="#64748b">1,200</text>
<text dominant-baseline="central" text-anchor="end" style="font-size:12px;font-family:ui-sans-serif, system-ui, sans-serif;font-weight:bold;" transform="translate(70.24 194.5)" fill="#64748b">1,300</text>
<text dominant-baseline="central" text-anchor="end" style="font-size:12px;font-family:ui-sans-serif, system-ui, sans-serif;font-weight:bold;" transform="translate(70.24 131)" fill="#64748b">1,400</text>
<text dominant-baseline="central" text-anchor="end" style="font-size:12px;font-family:ui-sans-serif, system-ui, sans-serif;font-weight:bold;" transform="translate(70.24 67.5)" fill="#64748b">1,500</text>
<text dominant-baseline="central" text-anchor="start" style="font-size:12px;font-family:ui-sans-serif, system-ui, sans-serif;font-weight:bold;" transform="translate(743.2 385)" fill="#64748b">0</text>
<text dominant-baseline="central" text-anchor="start" style="font-size:12px;font-family:ui-sans-serif, system-ui, sans-serif;font-weight:bold;" transform="translate(743.2 321.5)" fill="#64748b">0.5</text>
<text dominant-baseline="central" text-anchor="start" style="font-size:12px;font-family:ui-sans-serif, system-ui, sans-serif;font-weight:bold;" transform="translate(743.2 258)" fill="#64748b">1</text>
<text dominant-baseline="central" text-anchor="start" style="font-size:12px;font-family:ui-sans-serif, system-ui, sans-serif;font-weight:bold;" transform="translate(743.2 194.5)" fill="#64748b">1.5</text>
<text dominant-baseline="central" text-anchor="start" style="font-size:12px;font-family:ui-sans-serif, system-ui, sans-serif;font-weight:bold;" transform="translate(743.2 131)" fill="#64748b">2</text>
<text dominant-baseline="central" text-anchor="start" style="font-size:12px;font-family:ui-sans-serif, system-ui, sans-serif;font-weight:bold;" transform="translate(743.2 67.5)" fill="#64748b">2.5</text>
<text dominant-baseline="central" text-anchor="middle" style="font-size:12px;font-family:ui-sans-serif, system-ui, sans-serif;font-weight:bold;" y="6" transform="translate(78.24 393)" fill="#64748b">Jan</text>
<text dominant-baseline="central" text-anchor="middle" style="font-size:12px;font-family:ui-sans-serif, system-ui, sans-serif;font-weight:bold;" y="6" transform="translate(209.632 393)" fill="#64748b">Feb</text>
<text dominant-baseline="central" text-anchor="middle" style="font-size:12px;font-family:ui-sans-serif, system-ui, sans-serif;font-weight:bold;" y="6" transform="translate(341.024 393)" fill="#64748b">Mar</text>
<text dominant-baseline="central" text-anchor="middle" style="font-size:12px;font-family:ui-sans-serif, system-ui, sans-serif;font-weight:bold;" y="6" transform="translate(472.416 393)" fill="#64748b">Apr</text>
<text dominant-baseline="central" text-anchor="middle" style="font-size:12px;font-family:ui-sans-serif, system-ui, sans-serif;font-weight:bold;" y="6" transform="translate(603.808 393)" fill="#64748b">May</text>
<text dominant-baseline="central" text-anchor="middle" style="font-size:12px;font-family:ui-sans-serif, system-ui, sans-serif;font-weight:bold;" y="6" transform="translate(735.2 393)" fill="#64748b">Jun</text>
<g clip-path="url(#zr2-c0)">
<path d="M78.2 99.3C78.2 99.3 145.3 110.8 209.6 131C276.7 152.1 274.8 157.8 341 181.8C406.2 205.4 405.9 207 472.4 226.3C537.3 245.1 538.1 242.1 603.8 258C669.5 273.9 735.2 289.8 735.2 289.8" fill="transparent" stroke="#3b82f6" stroke-width="3" stroke-linejoin="bevel" class="zr2-cls-13"></path>
</g>
<g clip-path="url(#zr2-c1)">
<path d="M78.2 156.4C78.2 156.4 143.9 169.1 209.6 181.8C275.3 194.5 276.1 191.5 341 207.2C407.4 223.2 405.7 230.8 472.4 245.3C537.1 259.4 538.1 254.8 603.8 264.4C669.5 273.9 735.2 283.4 735.2 283.4" fill="transparent" stroke="#f43f5e" stroke-width="3" stroke-linejoin="bevel" class="zr2-cls-13"></path>
</g>
<path d="M1 0A1 1 0 1 1 1 -0.1A1 1 0 0 1 1 0" transform="matrix(3,0,0,3,78.24,99.25)" fill="#fff" stroke="#3b82f6" stroke-width="0.6666666666666666" ecmeta_series_index="0" ecmeta_data_index="0" ecmeta_ssr_type="chart" class="zr2-cls-15"></path>
<path d="M1 0A1 1 0 1 1 1 -0.1A1 1 0 0 1 1 0" transform="matrix(3,0,0,3,209.632,131)" fill="#fff" stroke="#3b82f6" stroke-width="0.6666666666666666" ecmeta_series_index="0" ecmeta_data_index="1" ecmeta_ssr_type="chart" class="zr2-cls-15"></path>
<path d="M1 0A1 1 0 1 1 1 -0.1A1 1 0 0 1 1 0" transform="matrix(3,0,0,3,341.024,181.8)" fill="#fff" stroke="#3b82f6" stroke-width="0.6666666666666666" ecmeta_series_index="0" ecmeta_data_index="2" ecmeta_ssr_type="chart" class="zr2-cls-15"></path>
<path d="M1 0A1 1 0 1 1 1 -0.1A1 1 0 0 1 1 0" transform="matrix(3,0,0,3,472.416,226.25)" fill="#fff" stroke="#3b82f6" stroke-width="0.6666666666666666" ecmeta_series_index="0" ecmeta_data_index="3" ecmeta_ssr_type="chart" class="zr2-cls-15"></path>
<path d="M1 0A1 1 0 1 1 1 -0.1A1 1 0 0 1 1 0" transform="matrix(3,0,0,3,603.808,258)" fill="#fff" stroke="#3b82f6" stroke-width="0.6666666666666666" ecmeta_series_index="0" ecmeta_data_index="4" ecmeta_ssr_type="chart" class="zr2-cls-15"></path>
<path d="M1 0A1 1 0 1 1 1 -0.1A1 1 0 0 1 1 0" transform="matrix(3,0,0,3,735.2,289.75)" fill="#fff" stroke="#3b82f6" stroke-width="0.6666666666666666" ecmeta_series_index="0" ecmeta_data_index="5" ecmeta_ssr_type="chart" class="zr2-cls-15"></path>
<path d="M1 0A1 1 0 1 1 1 -0.1A1 1 0 0 1 1 0" transform="matrix(3,0,0,3,78.24,156.4)" fill="#fff" stroke="#f43f5e" stroke-width="0.6666666666666666" ecmeta_series_index="1" ecmeta_data_index="0" ecmeta_ssr_type="chart" class="zr2-cls-15"></path>
<path d="M1 0A1 1 0 1 1 1 -0.1A1 1 0 0 1 1 0" transform="matrix(3,0,0,3,209.632,181.8)" fill="#fff" stroke="#f43f5e" stroke-width="0.6666666666666666" ecmeta_series_index="1" ecmeta_data_index="1" ecmeta_ssr_type="chart" class="zr2-cls-15"></path>
<path d="M1 0A1 1 0 1 1 1 -0.1A1 1 0 0 1 1 0" transform="matrix(3,0,0,3,341.024,207.2)" fill="#fff" stroke="#f43f5e" stroke-width="0.6666666666666666" ecmeta_series_index="1" ecmeta_data_index="2" ecmeta_ssr_type="chart" class="zr2-cls-15"></path>
<path d="M1 0A1 1 0 1 1 1 -0.1A1 1 0 0 1 1 0" transform="matrix(3,0,0,3,472.416,245.3)" fill="#fff" stroke="#f43f5e" stroke-width="0.6666666666666666" ecmeta_series_index="1" ecmeta_data_index="3" ecmeta_ssr_type="chart" class="zr2-cls-15"></path>
<path d="M1 0A1 1 0 1 1 1 -0.1A1 1 0 0 1 1 0" transform="matrix(3,0,0,3,603.808,264.35)" fill="#fff" stroke="#f43f5e" stroke-width="0.6666666666666666" ecmeta_series_index="1" ecmeta_data_index="4" ecmeta_ssr_type="chart" class="zr2-cls-15"></path>
<path d="M1 0A1 1 0 1 1 1 -0.1A1 1 0 0 1 1 0" transform="matrix(3,0,0,3,735.2,283.4)" fill="#fff" stroke="#f43f5e" stroke-width="0.6666666666666666" ecmeta_series_index="1" ecmeta_data_index="5" ecmeta_ssr_type="chart" class="zr2-cls-15"></path>
<path d="M-5 -5l225.9 0l0 23.2l-225.9 0Z" transform="translate(499.12 5)" fill="rgb(0,0,0)" fill-opacity="0" stroke="#ccc" stroke-width="0" class="zr2-cls-10"></path>
<path d="M0 7L25 7" transform="translate(500.12 4.6)" fill="#000" stroke="#3b82f6" stroke-width="2" stroke-linecap="butt" stroke-miterlimit="10" class="zr2-cls-10"></path>
<path d="M18.1 7A5.6 5.6 0 1 1 18.1 6.4A5.6 5.6 0 0 1 18.1 7" transform="translate(500.12 4.6)" fill="#fff" stroke="#3b82f6" stroke-width="2" stroke-linecap="butt" stroke-miterlimit="10" class="zr2-cls-10"></path>
<text dominant-baseline="central" text-anchor="start" style="font-size:12px;font-family:ui-sans-serif, system-ui, sans-serif;" xml:space="preserve" x="30" y="7" transform="translate(500.12 4.6)" fill="#64748b">Page Load Time</text>
<path d="M-1 0.4l119.4 0l0 13.2l-119.4 0Z" transform="translate(500.12 4.6)" fill="transparent" ecmeta_series_index="0" ecmeta_data_index="0" ecmeta_ssr_type="legend" class="zr2-cls-16"></path>
<path d="M0 7L25 7" transform="translate(629.56 4.6)" fill="#000" stroke="#f43f5e" stroke-width="2" stroke-linecap="butt" stroke-miterlimit="10" class="zr2-cls-10"></path>
<path d="M18.1 7A5.6 5.6 0 1 1 18.1 6.4A5.6 5.6 0 0 1 18.1 7" transform="translate(629.56 4.6)" fill="#fff" stroke="#f43f5e" stroke-width="2" stroke-linecap="butt" stroke-miterlimit="10" class="zr2-cls-10"></path>
<text dominant-baseline="central" text-anchor="start" style="font-size:12px;font-family:ui-sans-serif, system-ui, sans-serif;" xml:space="preserve" x="30" y="7" transform="translate(629.56 4.6)" fill="#64748b">Error Rate</text>
<path d="M-1 0.4l86.4 0l0 13.2l-86.4 0Z" transform="translate(629.56 4.6)" fill="transparent" ecmeta_series_index="1" ecmeta_data_index="1" ecmeta_ssr_type="legend" class="zr2-cls-16"></path>
<defs >
<clipPath id="zr2-c0">
<path d="M76 66l661 0l0 320.5l-661 0Z" fill="#000" class="zr2-cls-11 zr2-cls-12"></path>
</clipPath>
<clipPath id="zr2-c1">
<path d="M76 66l661 0l0 320.5l-661 0Z" fill="#000" class="zr2-cls-14 zr2-cls-12"></path>
</clipPath>
</defs>
<style ><![CDATA[
.zr2-cls-10:hover {
pointer-events:none;
}
.zr2-cls-11 {
animation:zr2-ani-0 1s linear both;
}
.zr2-cls-12:hover {
cursor:pointer;
fill:rgba(0,0,0,1);
}
.zr2-cls-13:hover {
cursor:pointer;
}
.zr2-cls-14 {
animation:zr2-ani-1 1s linear both;
}
.zr2-cls-15:hover {
cursor:pointer;
fill:rgba(255,255,255,1);
}
.zr2-cls-16:hover {
cursor:pointer;
fill:rgba(0,0,0,0);
}
@keyframes zr2-ani-0 {
0% {
d:path("M76 66l0 0l0 320.5l0 0Z");
}
100% {
d:path("M76 66l661 0l0 320.5l-661 0Z");
}
}
@keyframes zr2-ani-1 {
0% {
d:path("M76 66l0 0l0 320.5l0 0Z");
}
100% {
d:path("M76 66l661 0l0 320.5l-661 0Z");
}
}
]]>

</style>
</svg>