<svg width="800" height="450" xmlns="http://www.w3.org/2000/svg" xmlns:xlink="http://www.w3.org/1999/xlink" version="1.1" baseProfile="full" viewBox="0 0 800 450">
<rect width="800" height="450" x="0" y="0" fill="none"></rect>
<polygon points="40 60 600 60 558 122.8 82 122.8" fill="#1e3a8a" stroke="#fff" stroke-linejoin="round" ecmeta_series_index="0" ecmeta_data_index="0" ecmeta_ssr_type="chart" class="zr3-cls-17 zr3-cls-18"></polygon>
<polygon points="82 126.8 558 126.8 521.6 189.6 118.4 189.6" fill="#2563eb" stroke="#fff" stroke-linejoin="round" ecmeta_series_index="0" ecmeta_data_index="1" ecmeta_ssr_type="chart" class="zr3-cls-19 zr3-cls-20"></polygon>
<polygon points="118.4 193.6 521.6 193.6 510.4 256.4 129.6 256.4" fill="#3b82f6" stroke="#fff" stroke-linejoin="round" ecmeta_series_index="0" ecmeta_data_index="2" ecmeta_ssr_type="chart" class="zr3-cls-21 zr3-cls-22"></polygon>
<polygon points="129.6 260.4 510.4 260.4 502 323.2 138 323.2" fill="#60a5fa" stroke="#fff" stroke-linejoin="round" ecmeta_series_index="0" ecmeta_data_index="3" ecmeta_ssr_type="chart" class="zr3-cls-23 zr3-cls-24"></polygon>
<polygon points="138 327.2 502 327.2 320 390 320 390" fill="#93c5fd" stroke="#fff" stroke-linejoin="round" ecmeta_series_index="0" ecmeta_data_index="4" ecmeta_ssr_type="chart" class="zr3-cls-25 zr3-cls-26"></polygon>
<text dominant-baseline="central" text-anchor="middle" style="font-size:12px;font-family:ui-sans-serif, system-ui, sans-serif;font-weight:bold;" xml:space="preserve" x="320" y="91.4" fill="#ffffff" stroke="#1e3a8a" stroke-width="2" paint-order="stroke" stroke-miterlimit="2">Start Flow: 100%</text>
<text dominant-baseline="central" text-anchor="middle" style="font-size:12px;font-family:ui-sans-serif, system-ui, sans-serif;font-weight:bold;" xml:space="preserve" x="320" y="158.2" fill="#ffffff" stroke="#2563eb" stroke-width="2" paint-order="stroke" stroke-miterlimit="2">Upload Doc: 85%</text>
<text dominant-baseline="central" text-anchor="middle" style="font-size:12px;font-family:ui-sans-serif, system-ui, sans-serif;font-weight:bold;" xml:space="preserve" x="320" y="224.99999999999997" fill="#ffffff" stroke="#3b82f6" stroke-width="2" paint-order="stroke" stroke-miterlimit="2">Review Details: 72%</text>
<text dominant-baseline="central" text-anchor="middle" style="font-size:12px;font-family:ui-sans-serif, system-ui, sans-serif;font-weight:bold;" xml:space="preserve" x="320" y="291.8" fill="#ffffff" stroke="#60a5fa" stroke-width="2" paint-order="stroke" stroke-miterlimit="2">Submit Approval: 68%</text>
<text dominant-baseline="central" text-anchor="middle" style="font-size:12px;font-family:ui-sans-serif, system-ui, sans-serif;font-weight:bold;" xml:space="preserve" x="320" y="358.6" fill="#ffffff" stroke="#93c5fd" stroke-width="2" paint-order="stroke" stroke-miterlimit="2">Complete Pay: 65%</text>
<path d="M-5 -5l129.3 0l0 130l-129.3 0Z" transform="translate(635.68 165)" fill="rgb(0,0,0)" fill-opacity="0" stroke="#ccc" stroke-width="0" class="zr3-cls-27"></path>
<path d="M3.5 0L21.5 0A3.5 3.5 0 0 1 25 3.5L25 10.5A3.5 3.5 0 0 1 21.5 14L3.5 14A3.5 3.5 0 0 1 0 10.5L0 3.5A3.5 3.5 0 0 1 3.5 0" transform="translate(636.68 166)" fill="#1e3a8a" stroke="#fff" stroke-width="2" stroke-linecap="butt" stroke-miterlimit="10" ecmeta_series_index="0" ecmeta_data_index="0" ecmeta_ssr_type="legend" ecmeta_silent="true" class="zr3-cls-27"></path>
<text dominant-baseline="central" text-anchor="start" style="font-size:12px;font-family:ui-sans-serif, system-ui, sans-serif;" xml:space="preserve" x="30" y="7" transform="translate(636.68 166)" fill="#64748b">Start Flow</text>
<path d="M-1 -1l85.1 0l0 16l-85.1 0Z" transform="translate(636.68 166)" fill="transparent" ecmeta_series_index="0" ecmeta_data_index="0" ecmeta_ssr_type="legend" class="zr3-cls-28"></path>
<path d="M3.5 0L21.5 0A3.5 3.5 0 0 1 25 3.5L25 10.5A3.5 3.5 0 0 1 21.5 14L3.5 14A3.5 3.5 0 0 1 0 10.5L0 3.5A3.5 3.5 0 0 1 3.5 0" transform="translate(636.68 192)" fill="#2563eb" stroke="#fff" stroke-width="2" stroke-linecap="butt" stroke-miterlimit="10" ecmeta_series_index="0" ecmeta_data_index="1" ecmeta_ssr_type="legend" ecmeta_silent="true" class="zr3-cls-27"></path>
<text dominant-baseline="central" text-anchor="start" style="font-size:12px;font-family:ui-sans-serif, system-ui, sans-serif;" xml:space="preserve" x="30" y="7" transform="translate(636.68 192)" fill="#64748b">Upload Doc</text>
<path d="M-1 -1l93.9 0l0 16l-93.9 0Z" transform="translate(636.68 192)" fill="transparent" ecmeta_series_index="0" ecmeta_data_index="1" ecmeta_ssr_type="legend" class="zr3-cls-28"></path>
<path d="M3.5 0L21.5 0A3.5 3.5 0 0 1 25 3.5L25 10.5A3.5 3.5 0 0 1 21.5 14L3.5 14A3.5 3.5 0 0 1 0 10.5L0 3.5A3.5 3.5 0 0 1 3.5 0" transform="translate(636.68 218)" fill="#3b82f6" stroke="#fff" stroke-width="2" stroke-linecap="butt" stroke-miterlimit="10" ecmeta_series_index="0" ecmeta_data_index="2" ecmeta_ssr_type="legend" ecmeta_silent="true" class="zr3-cls-27"></path>
<text dominant-baseline="central" text-anchor="start" style="font-size:12px;font-family:ui-sans-serif, system-ui, sans-serif;" xml:space="preserve" x="30" y="7" transform="translate(636.68 218)" fill="#64748b">Review Details</text>
<path d="M-1 -1l110.4 0l0 16l-110.4 0Z" transform="translate(636.68 218)" fill="transparent" ecmeta_series_index="0" ecmeta_data_index="2" ecmeta_ssr_type="legend" class="zr3-cls-28"></path>
<path d="M3.5 0L21.5 0A3.5 3.5 0 0 1 25 3.5L25 10.5A3.5 3.5 0 0 1 21.5 14L3.5 14A3.5 3.5 0 0 1 0 10.5L0 3.5A3.5 3.5 0 0 1 3.5 0" transform="translate(636.68 244)" fill="#60a5fa" stroke="#fff" stroke-width="2" stroke-linecap="butt" stroke-miterlimit="10" ecmeta_series_index="0" ecmeta_data_index="3" ecmeta_ssr_type="legend" ecmeta_silent="true" class="zr3-cls-27"></path>
<text dominant-baseline="central" text-anchor="start" style="font-size:12px;font-family:ui-sans-serif, system-ui, sans-serif;" xml:space="preserve" x="30" y="7" transform="translate(636.68 244)" fill="#64748b">Submit Approval</text>
<path d="M-1 -1l119.3 0l0 16l-119.3 0Z" transform="translate(636.68 244)" fill="transparent" ecmeta_series_index="0" ecmeta_data_index="3" ecmeta_ssr_type="legend" class="zr3-cls-28"></path>
<path d="M3.5 0L21.5 0A3.5 3.5 0 0 1 25 3.5L25 10.5A3.5 3.5 0 0 1 21.5 14L3.5 14A3.5 3.5 0 0 1 0 10.5L0 3.5A3.5 3.5 0 0 1 3.5 0" transform="translate(636.68 270)" fill="#93c5fd" stroke="#fff" stroke-width="2" stroke-linecap="butt" stroke-miterlimit="10" ecmeta_series_index="0" ecmeta_data_index="4" ecmeta_ssr_type="legend" ecmeta_silent="true" class="zr3-cls-27"></path>
<text dominant-baseline="central" text-anchor="start" style="font-size:12px;font-family:ui-sans-serif, system-ui, sans-serif;" xml:space="preserve" x="30" y="7" transform="translate(636.68 270)" fill="#64748b">Complete Pay</text>
<path d="M-1 -1l106.6 0l0 16l-106.6 0Z" transform="translate(636.68 270)" fill="transparent" ecmeta_series_index="0" ecmeta_data_index="4" ecmeta_ssr_type="legend" class="zr3-cls-28"></path>
<style ><![CDATA[
.zr3-cls-17 {
animation:zr3-ani-0 1s cubic-bezier(0.65,0,0.35,1) both;
}
.zr3-cls-18:hover {
cursor:pointer;
fill:rgba(33,63,151,1);
}
.zr3-cls-19 {
animation:zr3-ani-1 1s cubic-bezier(0.65,0,0.35,1) both;
}
.zr3-cls-20:hover {
cursor:pointer;
fill:rgba(40,108,255,1);
}
.zr3-cls-21 {
animation:zr3-ani-2 1s cubic-bezier(0.65,0,0.35,1) both;
}
.zr3-cls-22:hover {
cursor:pointer;
fill:rgba(64,143,255,1);
}
.zr3-cls-23 {
animation:zr3-ani-3 1s cubic-bezier(0.65,0,0.35,1) both;
}
.zr3-cls-24:hover {
cursor:pointer;
fill:rgba(105,181,255,1);
}
.zr3-cls-25 {
animation:zr3-ani-4 1s cubic-bezier(0.65,0,0.35,1) both;
}
.zr3-cls-26:hover {
cursor:pointer;
fill:rgba(161,216,255,1);
}
.zr3-cls-27:hover {
pointer-events:none;
}
.zr3-cls-28:hover {
cursor:pointer;
fill:rgba(0,0,0,0);
}
@keyframes zr3-ani-0 {
0% {
opacity:0;
}
100% {
opacity:1;
}
}
@keyframes zr3-ani-1 {
0% {
opacity:0;
}
100% {
opacity:1;
}
}
@keyframes zr3-ani-2 {
0% {
opacity:0;
}
100% {
opacity:1;
}
}
@keyframes zr3-ani-3 {
0% {
opacity:0;
}
100% {
opacity:1;
}
}
@keyframes zr3-ani-4 {
0% {
opacity:0;
}
100% {
opacity:1;
}
}
]]>

</style>
</svg>